<svg width="1200" height="630" viewBox="0 0 1200 630" fill="none" xmlns="http://www.w3.org/2000/svg">
<g clip-path="url(#clip0_288_2)">
<path d="M1200 0H0V630H1200V0Z" fill="black"/>
<path d="M624.541 309.5V349.538L624.406 349.737H611.905L611.773 349.538V309.63C611.773 304.843 609.115 301.54 603.793 299.72C602.152 299.146 600.066 298.854 597.539 298.854H594.946C588.03 298.854 583.548 301.158 581.512 305.771C580.98 307.013 580.715 308.411 580.715 309.96V349.538L580.581 349.733H568.078L567.944 349.538V311.093C567.944 306.347 566.416 303.113 563.356 301.385C561.004 299.699 557.81 298.858 553.779 298.858H552.717C547.305 298.858 543.469 299.702 541.21 301.385C538.284 303.157 536.817 306.44 536.817 311.231V349.541L536.618 349.737H524.184L523.984 349.541V286.553L524.184 286.354H536.618L536.817 286.553V290.145H536.883C539.146 288.906 542.116 287.748 545.798 286.687C547.704 286.244 550.077 286.021 552.913 286.021H553.511C562.113 286.021 569.05 288.617 574.328 293.799C579.383 288.614 586.344 286.021 595.214 286.021H597.274C608.98 286.021 617.272 290.43 622.15 299.256C623.749 302.714 624.544 306.128 624.544 309.496L624.541 309.5Z" fill="white"/>
<path d="M365.447 285.787V349.242L365.313 349.372H352.745L352.545 349.242V342.789C347.58 348.239 341.192 350.969 333.39 350.969H333.325C323.613 350.969 315.368 347.044 308.586 339.197C303.527 332.858 301 325.739 301 317.847V317.782C301 308.026 304.767 299.602 312.305 292.507C318.558 287.277 325.626 284.657 333.521 284.657C340.925 284.657 347.267 287.473 352.542 293.105V285.787L352.741 285.656H365.31L365.444 285.787H365.447ZM352.545 317.847V317.782C352.545 310.687 349.527 304.966 343.5 300.622C340.176 298.582 336.893 297.566 333.655 297.566H332.594C327.274 297.566 322.463 300.028 318.164 304.949C315.279 309.029 313.84 313.308 313.84 317.786C313.84 324.791 316.855 330.533 322.885 335.011C326.254 337.051 329.448 338.071 332.463 338.071H333.926C338.184 338.071 342.305 336.343 346.296 332.885C350.461 328.627 352.549 323.62 352.549 317.854L352.545 317.847Z" fill="white"/>
<path d="M413.753 346.578C412.702 347.021 410.964 347.594 408.567 348.302C405.727 349.023 403.251 349.37 401.115 349.37H400.985C396.781 349.37 392.829 348.089 389.151 345.513C388.529 345.07 387.709 344.366 386.689 343.398L385.555 341.921C384.851 341.004 384.292 340.084 383.9 339.198C382.702 336.488 382.094 333.796 382.094 331.09V252H394.862L394.927 252.065V285.595H411.438L411.503 285.661V298.429L411.438 298.494H394.927V330.613C394.927 333.106 395.779 334.765 397.455 335.603C398.619 336.227 399.817 336.54 401.047 336.54C402.784 336.54 405.25 335.966 408.433 334.816L408.976 334.555L413.753 346.585V346.578Z" fill="white"/>
<path d="M506.31 287.553L474.957 269.452C470.331 266.78 464.63 266.78 460.005 269.452L428.652 287.553C424.026 290.225 421.176 295.16 421.176 300.5V336.705C421.176 342.045 424.026 346.983 428.652 349.652L460.005 367.752C464.63 370.424 470.331 370.424 474.957 367.752L506.31 349.652C510.935 346.98 513.786 342.045 513.786 336.705V300.5C513.786 295.16 510.935 290.221 506.31 287.553ZM495.647 334.013C494.717 335.699 493.453 337.536 491.856 339.531C490.125 341.526 488.727 342.924 487.666 343.721C486.471 344.696 485.338 345.517 484.274 346.183C478.999 349.373 473.501 350.97 467.78 350.97H467.182C461.152 350.97 455.365 349.198 449.823 345.651C448.762 344.854 447.803 344.102 446.962 343.391C445.232 341.925 443.988 340.685 443.236 339.665C442.306 338.6 441.44 337.45 440.64 336.207C439.754 334.785 439.002 333.415 438.38 332.083C436.296 327.471 435.252 322.879 435.252 318.316V317.316C435.252 312.35 436.492 307.364 438.978 302.354C439.689 300.977 440.53 299.583 441.506 298.164C442.258 297.1 443.391 295.747 444.898 294.105C447.069 292.11 448.624 290.822 449.555 290.245C455.005 286.523 460.97 284.658 467.443 284.658C474.672 284.658 481.279 286.986 487.265 291.643C488.106 292.265 489.304 293.37 490.856 294.967C493.916 298.384 496.087 301.883 497.374 305.476C498.926 309.466 499.699 313.611 499.703 317.914C499.703 323.501 498.35 328.865 495.647 334.009V334.013Z" fill="#FFD400"/>
<path d="M741.103 309.5V349.538L740.971 349.737H728.467L728.335 349.538V309.63C728.335 304.843 725.677 301.54 720.355 299.72C718.714 299.146 716.629 298.854 714.103 298.854H711.508C704.593 298.854 700.111 301.158 698.074 305.771C697.543 307.013 697.279 308.411 697.279 309.96V349.538L697.144 349.733H684.64L684.508 349.538V311.093C684.508 306.347 682.978 303.113 679.918 301.385C677.566 299.699 674.374 298.858 670.342 298.858H669.28C663.868 298.858 660.031 299.702 657.772 301.385C654.847 303.157 653.383 306.44 653.383 311.231V349.541L653.185 349.737H640.75L640.552 349.541V286.553L640.75 286.354H653.185L653.383 286.553V290.145H653.449C655.711 288.906 658.684 287.748 662.365 286.687C664.27 286.244 666.643 286.021 669.478 286.021H670.078C678.679 286.021 685.615 288.617 690.895 293.799C695.95 288.614 702.91 286.021 711.781 286.021H713.842C725.548 286.021 733.837 290.43 738.718 299.256C740.314 302.714 741.112 306.128 741.112 309.496L741.103 309.5Z" fill="white"/>
<path d="M816.277 285.787V349.242L816.142 349.372H803.572L803.374 349.242V342.789C798.409 348.239 792.022 350.969 784.219 350.969H784.153C774.442 350.969 766.198 347.044 759.415 339.197C754.36 332.858 751.831 325.742 751.831 317.847V317.782C751.831 308.026 755.599 299.602 763.138 292.507C769.39 287.277 776.458 284.657 784.354 284.657C791.758 284.657 798.1 287.473 803.374 293.105V285.787L803.572 285.656H816.142L816.277 285.787ZM803.374 317.847V317.782C803.374 310.687 800.356 304.966 794.329 300.622C791.005 298.582 787.723 297.566 784.483 297.566H783.418C778.099 297.566 773.287 300.028 768.988 304.949C766.105 309.029 764.665 313.308 764.665 317.786C764.665 324.791 767.68 330.533 773.71 335.011C777.079 337.051 780.274 338.071 783.289 338.071H784.75C789.01 338.071 793.129 336.343 797.122 332.885C801.286 328.627 803.374 323.62 803.374 317.854V317.847Z" fill="white"/>
<path d="M898 317.982C898 325.3 895.735 332.058 891.214 338.271C890.641 339.112 889.486 340.441 887.755 342.261L886.561 343.257C880.351 348.443 873.412 351.038 865.741 351.038C860.152 351.038 855.097 349.442 850.576 346.248C849.733 345.671 848.578 344.696 847.117 343.322L846.454 342.591V378.041H833.683L833.617 377.975V285.987L833.683 285.922H846.454V292.903C848.047 291.217 849.046 290.266 849.445 290.042C850.774 289.023 851.929 288.247 852.904 287.714C854.281 286.962 855.655 286.385 857.026 285.983C858.046 285.674 859.819 285.3 862.348 284.854C863.143 284.813 864.097 284.765 865.207 284.723C871.636 284.723 877.402 286.296 882.502 289.445C883.876 290.242 885.541 291.53 887.488 293.305C889.129 294.943 890.17 296.076 890.617 296.694C891.676 298.068 892.633 299.421 893.476 300.753C896.488 306.076 898 311.818 898.003 317.979L898 317.982ZM885.16 317.852C885.16 312.797 883.498 308.274 880.174 304.284C878.752 302.776 877.885 301.935 877.576 301.756C874.03 298.964 870.103 297.567 865.804 297.567H865.273C862.924 297.567 860.347 298.188 857.557 299.431C856.183 300.053 854.65 301.114 852.967 302.625C851.371 304.222 850.396 305.352 850.042 306.014C849.376 307.034 848.845 307.944 848.446 308.741C848.044 309.582 847.603 310.692 847.114 312.065C846.67 314.105 846.448 315.613 846.448 316.588V319.246C846.448 320.489 846.781 322.285 847.447 324.634C847.978 326.097 848.551 327.405 849.175 328.559C849.841 329.531 850.792 330.733 852.034 332.151C853.408 333.525 854.365 334.37 854.896 334.679C855.955 335.39 856.891 335.966 857.686 336.41C860.482 337.608 862.984 338.205 865.204 338.205H866.068C870.016 338.205 873.742 336.873 877.243 334.215C877.864 333.772 878.752 332.951 879.901 331.753C882.031 329.27 883.471 326.698 884.224 324.036C884.848 321.997 885.157 319.936 885.157 317.855L885.16 317.852Z" fill="white"/>
<path opacity="0.7" d="M486.865 317.783C486.865 312.683 485.114 308.092 481.608 304.012C480.1 302.415 479.084 301.505 478.552 301.285C477.796 300.664 477.085 300.176 476.422 299.819C473.538 298.267 470.543 297.491 467.442 297.491C462.741 297.491 458.441 299.242 454.541 302.745C453.167 304.122 452.301 305.138 451.948 305.808C449.376 309.397 448.088 313.432 448.088 317.91C448.088 322.741 449.661 327.13 452.813 331.079C454.187 332.632 455.251 333.652 456.007 334.139C459.509 336.801 463.321 338.13 467.446 338.13C472.501 338.13 476.979 336.223 480.88 332.412C482.432 330.77 483.517 329.352 484.139 328.157C485.955 324.874 486.865 321.484 486.865 317.982V317.786V317.783Z" fill="#FFD400"/>
</g>
<defs>
<clipPath id="clip0_288_2">
<rect width="1200" height="630" fill="white"/>
</clipPath>
</defs>
</svg>
