<svg width="170" height="50" viewBox="0 0 170 50" fill="none" xmlns="http://www.w3.org/2000/svg">
<mask id="mask0_342_20" style="mask-type:luminance" maskUnits="userSpaceOnUse" x="0" y="0" width="50" height="50">
<path d="M11.8036 47.2381C14.0245 48.0366 16.8193 48.2862 19.5143 48.5357C20.6872 48.6355 21.86 48.7603 22.958 48.91L23.0579 49.1097C23.2825 49.5339 23.6817 49.8084 24.1059 49.9332C24.5302 50.0579 25.0044 50.008 25.4286 49.7834C25.8528 49.5588 26.1272 49.1595 26.252 48.7353C26.3767 48.3111 26.3268 47.837 26.1022 47.4128C25.8527 46.9885 25.4784 46.714 25.0542 46.5893C24.63 46.4645 24.1558 46.5144 23.7316 46.739C23.6068 46.7889 23.507 46.8638 23.4321 46.9387C23.3822 46.9886 23.3073 47.0385 23.2574 47.1133C22.5587 47.0385 21.7353 46.9886 20.837 46.9387C18.5661 46.7889 15.8711 46.4396 13.5005 45.9654C8.28505 44.9174 6.73783 41.1992 8.13526 36.0587C5.98921 39.5273 6.46341 45.3166 11.8036 47.2131V47.2381ZM24.4553 48.8851C24.3056 48.8601 24.1558 48.7603 24.081 48.6355C23.9811 48.4609 23.9563 48.3111 24.0062 48.1365C24.0311 47.9867 24.1309 47.837 24.2557 47.7621C24.4054 47.6623 24.5801 47.6374 24.7298 47.6623C24.8795 47.6873 25.0293 47.7871 25.1042 47.9368C25.204 48.0865 25.2289 48.2612 25.1789 48.411C25.154 48.5607 25.0542 48.7104 24.9295 48.7852C24.9295 48.7852 24.7049 48.8851 24.6051 48.8851C24.5551 48.8851 24.5053 48.8851 24.4803 48.8851H24.4553ZM11.3045 44.1438C13.1511 44.9922 15.6465 45.2917 18.1419 45.5662H18.4413C18.6909 45.9655 19.0403 46.215 19.4395 46.2898C19.8388 46.3897 20.263 46.2898 20.6373 46.0902C21.0116 45.8407 21.2612 45.4913 21.3361 45.0921C21.4359 44.6928 21.361 44.2686 21.1364 43.8943C20.9118 43.52 20.5374 43.2704 20.1382 43.1956C19.7389 43.0957 19.3147 43.1706 18.9404 43.3952C18.8157 43.47 18.6908 43.5699 18.591 43.6946C18.5162 43.7695 18.4664 43.8443 18.4165 43.9192C17.8425 43.8194 17.2685 43.7445 16.7195 43.6447C15.0725 43.3952 13.4256 43.1456 12.103 42.6216C7.83588 40.9497 9.15843 36.5827 9.90705 33.4634C8.06045 36.6077 6.8876 42.1225 11.3045 44.1438ZM19.6392 45.3666C19.4895 45.3416 19.3397 45.2418 19.2648 45.117C19.165 44.9673 19.1401 44.7926 19.1901 44.6429C19.215 44.4931 19.3148 44.3434 19.4645 44.2686C19.6142 44.1687 19.7889 44.1438 19.9386 44.1688C20.0884 44.1937 20.238 44.2935 20.3129 44.4183C20.4127 44.568 20.4377 44.7427 20.3878 44.9174C20.3628 45.0671 20.2629 45.2168 20.1382 45.2917C20.1382 45.2917 19.9137 45.3915 19.8139 45.3915C19.764 45.3915 19.714 45.3915 19.689 45.3915L19.6392 45.3666ZM38.3048 41.0495C37.1819 40.9996 36.5332 41.9728 36.5082 42.946C36.5082 43.9192 37.0821 44.8924 38.4795 44.8425C44.5933 44.6179 47.6875 41.9478 48.5859 36.8323C47.3382 40.2759 42.6468 41.299 38.3048 41.0744V41.0495ZM9.38296 27.7989C8.9837 27.7989 8.58443 27.9486 8.28498 28.3229C6.71287 30.2194 4.84131 32.9893 3.91801 35.8091C2.6204 39.7768 3.69353 42.8961 7.4616 44.8176C3.44399 40.1012 8.0604 34.9108 11.1048 31.0679C12.2776 29.5956 10.7554 27.7739 9.38296 27.7739V27.7989ZM28.8721 43.495C28.8721 43.495 29.0967 43.5698 29.2215 43.5948C31.0182 44.019 31.7918 44.1188 33.6134 44.3434C35.9092 44.6429 36.4832 40.9497 34.1126 40.6502C32.765 40.3757 31.5173 40.201 30.045 40.0014C29.8953 39.9764 29.7706 39.9515 29.6208 39.9515C27.8242 39.9515 27.1004 42.6965 28.8721 43.495ZM21.0117 38.9035C20.8619 39.1031 20.7621 39.3277 20.6872 39.5522C20.6124 39.7768 20.6123 40.0264 20.6373 40.2759C20.7121 40.8997 21.0864 41.4737 21.86 41.6983L22.4839 41.873L23.2824 42.0726L24.1059 42.2722L24.8296 42.4469C25.4035 42.5717 25.8776 42.4469 26.227 42.1475C26.4516 41.9478 26.6512 41.6983 26.7511 41.4238C26.8758 41.1493 26.9257 40.8498 26.9008 40.5504C26.8509 40.0763 26.6263 39.5772 26.1522 39.2777C26.0524 39.2278 25.9776 39.1779 25.8777 39.128C25.7779 39.0781 25.6781 39.0531 25.5783 39.0282L24.9045 38.8785L24.1559 38.7038L23.4073 38.5291L22.7585 38.3545C22.5838 38.3046 22.434 38.2796 22.2594 38.2796C21.7104 38.2796 21.2861 38.5291 20.9867 38.9284L21.0117 38.9035ZM1.72219 29.3211C-1.14753 34.7361 -0.37408 38.7287 3.61857 42.0726C1.27289 39.2777 2.72029 34.6862 5.09093 31.0679C5.93937 29.7703 4.6417 28.273 3.31914 28.273C2.72024 28.273 2.14641 28.5725 1.72219 29.346V29.3211ZM16.1706 40.1012C16.7695 40.2759 16.8942 40.3009 17.1936 40.3757L17.7926 40.5255C17.7926 40.5255 18.0171 40.5754 18.1169 40.5754C19.9635 40.6502 20.4128 37.7805 18.5412 37.3563C18.0172 37.1816 17.543 37.1067 17.0689 37.0069C16.9691 36.982 16.8443 36.957 16.7445 36.957C16.6945 36.957 16.6447 36.957 16.6197 36.957C14.8979 36.957 14.4238 39.6021 16.1706 40.1262V40.1012ZM35.3103 35.8091C32.9147 35.4598 32.2409 39.2777 34.3371 39.6271C36.7826 40.0513 40.1015 40.2759 42.9962 39.652C47.0637 38.7787 49.2347 36.3082 49.0351 32.066C46.9639 37.9053 40.1514 36.5079 35.3103 35.7842V35.8091ZM26.0275 35.2102C25.9027 35.4099 25.8029 35.6345 25.728 35.859C25.6781 36.1086 25.6531 36.3332 25.703 36.5827C25.8029 37.2066 26.2021 37.7805 26.9757 37.9552L27.6244 38.1049L28.4229 38.2796L29.2715 38.4543L29.9951 38.604C30.569 38.7038 31.0431 38.5541 31.3925 38.2546C31.6171 38.055 31.7918 37.8055 31.8916 37.531C31.9914 37.2565 32.0413 36.9321 32.0163 36.6326C31.9664 36.1335 31.7169 35.6844 31.2178 35.3849C31.118 35.335 31.0432 35.2851 30.9433 35.2352C30.8435 35.2102 30.7437 35.1603 30.6439 35.1603L29.9701 35.0356L29.1965 34.8858L28.4229 34.7361L27.7743 34.5864C27.6245 34.5614 27.4747 34.5365 27.3499 34.5365C26.776 34.5365 26.3269 34.811 26.0524 35.2352L26.0275 35.2102ZM22.0097 34.0124C21.835 34.1123 21.7103 34.237 21.5856 34.3618C21.4857 34.5115 21.386 34.6612 21.3361 34.8609L21.2362 35.2102C21.1363 35.5845 21.1864 35.9339 21.361 36.2583C21.5357 36.5577 21.8102 36.8073 22.1596 36.9321C22.2844 36.957 22.6087 37.0568 22.7335 37.1068C23.1078 37.2066 23.4821 37.1567 23.8065 36.982C24.1309 36.8073 24.3555 36.5079 24.4803 36.1335L24.6051 35.7343C24.655 35.5346 24.68 35.36 24.655 35.1853C24.655 35.0106 24.5801 34.8359 24.4803 34.6612C24.3805 34.4865 24.2557 34.3618 24.1059 34.237C23.9562 34.1372 23.7815 34.0374 23.6068 33.9875C23.3573 33.9376 23.1078 33.8627 22.8333 33.8378C22.7833 33.8378 22.7584 33.8378 22.7085 33.8378C22.459 33.8378 22.2095 33.8877 21.9849 34.0124H22.0097ZM43.0462 13.8246C42.6219 13.9244 42.2225 14.2238 41.973 14.6231C41.7235 15.0473 41.6737 15.5214 41.7735 15.9457C41.8733 16.3699 42.1478 16.7692 42.572 17.0187C42.6718 17.0936 42.7966 17.1435 42.8964 17.1684C42.9713 17.1934 43.0461 17.2183 43.1459 17.2433C43.4204 17.8921 43.7947 18.6407 44.194 19.4143C45.2171 21.4605 46.2652 23.9559 47.0388 26.2517C48.7356 31.2924 46.2901 34.4866 41.1246 35.859C45.1922 35.9838 49.9834 32.6899 48.9603 27.1001C48.536 24.7794 47.3631 22.2341 46.2402 19.7636C45.7411 18.6906 45.267 17.6176 44.8428 16.5945L44.9675 16.3949C45.2171 15.9706 45.267 15.4965 45.1672 15.0723C45.0674 14.6481 44.7929 14.2488 44.3686 13.9992C44.0942 13.8246 43.7698 13.7497 43.4703 13.7497C43.3206 13.7497 43.1709 13.7497 43.0462 13.7996V13.8246ZM42.3474 19.9134C41.9481 20.0382 41.6237 20.3126 41.3991 20.687C41.1995 21.0862 41.1746 21.5104 41.2993 21.9097C41.4241 22.309 41.6986 22.6334 42.0729 22.858C42.1977 22.9328 42.3474 22.9827 42.4971 23.0077C42.5969 23.0077 42.6967 23.0327 42.7716 23.0327C42.9712 23.5816 43.1958 24.1057 43.3954 24.6547C43.9943 26.2018 44.6182 27.749 44.8428 29.1713C45.5415 33.688 41.0997 34.7611 38.0054 35.6594C41.6487 35.6844 46.9888 33.9376 46.5646 29.1214C46.365 27.1001 45.3668 24.7794 44.3936 22.4837L44.2689 22.2092C44.4685 21.8099 44.4934 21.3856 44.3686 21.0113C44.2439 20.637 43.9694 20.2877 43.5951 20.0631C43.3705 19.9383 43.096 19.8884 42.8465 19.8884C42.6718 19.8884 42.5221 19.9134 42.3724 19.9633L42.3474 19.9134ZM38.6043 24.48C37.6061 24.48 36.583 25.3534 36.9574 26.5262C37.0821 27.0752 37.2318 27.5244 37.3815 27.9735C37.4065 28.0734 37.4564 28.1981 37.5063 28.273C38.3048 29.92 40.95 28.9966 40.5258 27.175C40.376 26.5761 40.3511 26.4514 40.2513 26.1519L40.0766 25.5779C40.0766 25.5779 40.0016 25.3783 39.9517 25.2785C39.6523 24.7046 39.1283 24.455 38.6043 24.455V24.48ZM7.6861 21.6352C7.6861 21.6352 7.51146 21.7849 7.41165 21.8847C6.16394 23.2323 5.68978 23.8561 4.56684 25.3034C3.16941 27.15 6.06407 29.4957 7.51141 27.5743C8.43471 26.5262 9.20838 25.553 10.1067 24.4051C11.2796 23.1324 10.0568 21.3108 8.65935 21.3108C8.33495 21.3108 7.98553 21.4106 7.66113 21.6352H7.6861ZM13.4007 22.7332L12.9515 23.2073L12.4025 23.8062L11.8286 24.455L11.3295 25.0289C10.9551 25.4532 10.8554 25.9523 10.9303 26.4264C10.9802 26.7259 11.1298 27.0003 11.3045 27.2249C11.5041 27.4495 11.7286 27.6491 12.0281 27.7739C12.4773 27.9735 13.0014 27.9735 13.5254 27.6991C13.6252 27.6491 13.7001 27.5992 13.7999 27.5244C13.8747 27.4495 13.9497 27.3746 14.0245 27.2998L14.4737 26.7758L14.9976 26.2018L15.5217 25.6279L15.9709 25.1288C16.5199 24.5299 16.5448 23.8561 16.2953 23.3071C16.1955 23.0826 16.0458 22.8829 15.8711 22.7332C15.6964 22.5585 15.4719 22.4338 15.2473 22.3339C15.0476 22.2591 14.823 22.2092 14.5984 22.2092C14.1992 22.2092 13.775 22.3589 13.4007 22.7582V22.7332ZM32.9148 21.9596L32.5155 22.0594C32.3158 22.1094 32.1661 22.1842 32.0163 22.284C31.8666 22.3838 31.7419 22.5336 31.6421 22.7082C31.5423 22.8829 31.4924 23.0576 31.4674 23.2323C31.4674 23.407 31.4675 23.6066 31.5174 23.7812C31.5922 24.0308 31.667 24.2803 31.7669 24.5299C31.8916 24.7794 32.0663 25.004 32.3408 25.1787C32.5154 25.2785 32.6902 25.3534 32.8648 25.3534C33.0395 25.3534 33.2391 25.3534 33.4138 25.3034L33.7632 25.2036C34.1375 25.1038 34.412 24.8792 34.6117 24.5798C34.7863 24.2803 34.8612 23.906 34.7864 23.5567C34.7614 23.4319 34.6616 23.1075 34.6366 22.9578C34.5368 22.5835 34.3122 22.284 33.9878 22.0844C33.7632 21.9596 33.5136 21.8847 33.264 21.8847C33.1393 21.8847 33.0396 21.8848 32.9148 21.9347V21.9596ZM36.3583 17.3431C36.0589 17.3681 35.7595 17.4928 35.51 17.6675C35.1107 17.942 34.8113 18.3912 34.7864 18.9651C34.7864 19.0649 34.7864 19.1897 34.7864 19.2895C34.7864 19.3894 34.8362 19.4892 34.8611 19.589L35.0608 20.2378L35.2853 20.9864L35.51 21.735L35.6847 22.3838C35.8843 23.1574 36.4582 23.5317 37.0571 23.6066C37.2817 23.6315 37.5561 23.6066 37.7807 23.5567C38.0053 23.4818 38.2299 23.382 38.4296 23.2323C38.9286 22.858 39.253 22.2341 39.0534 21.4605L38.8787 20.8367L38.6542 20.0631L38.4046 19.2396L38.1801 18.5159C38.0054 17.9669 37.6311 17.6176 37.2068 17.4429C37.0072 17.3681 36.7826 17.3181 36.558 17.3181C36.4831 17.3181 36.3834 17.3181 36.3085 17.3181L36.3583 17.3431ZM16.7195 19.0899C16.7195 19.0899 16.3702 19.4143 16.2953 19.5141C16.0208 19.7886 15.8711 20.138 15.8711 20.5123C15.8711 20.8616 15.9958 21.236 16.2703 21.5104L16.5698 21.8099C16.6945 21.9596 16.8692 22.0594 17.0189 22.1343C17.1936 22.2092 17.3683 22.2341 17.568 22.2341C17.7676 22.2341 17.9422 22.2092 18.1169 22.1343C18.2916 22.0594 18.4414 21.9596 18.5662 21.8099C18.7409 21.6352 18.9154 21.4356 19.0652 21.211C19.2149 20.9864 19.3398 20.7119 19.3398 20.4125C19.3398 20.2128 19.3147 20.0381 19.2399 19.8635C19.165 19.6888 19.0652 19.539 18.9404 19.4143L18.666 19.1648C18.3915 18.8903 18.0671 18.7655 17.7177 18.7655H17.6927C17.3434 18.7655 17.0189 18.8902 16.7445 19.1398L16.7195 19.0899ZM42.572 21.9846C42.4223 21.8848 42.3225 21.76 42.2726 21.6102C42.2227 21.4605 42.2226 21.3108 42.3224 21.1611C42.3973 20.9864 42.547 20.8866 42.6968 20.8367C42.8465 20.7868 43.0212 20.8117 43.1459 20.8616C43.2956 20.9614 43.3955 21.0862 43.4454 21.236C43.4953 21.3857 43.4952 21.5603 43.4204 21.6851C43.3455 21.8348 43.1959 21.9347 43.0462 21.9846C42.9963 21.9846 42.9213 22.0095 42.8465 22.0095C42.7467 22.0095 42.6718 22.0095 42.572 21.9347V21.9846ZM12.7768 16.4448L12.3277 16.9189L11.7536 17.4928L11.1548 18.1167L10.6307 18.6657C10.2314 19.0899 10.1316 19.589 10.2065 20.0381C10.2564 20.3376 10.3812 20.6121 10.5559 20.8616C10.7306 21.1112 10.98 21.3108 11.2545 21.4356C11.7037 21.6602 12.2278 21.6851 12.7519 21.4356C12.8517 21.3857 12.9265 21.3358 13.0263 21.2609C13.1012 21.211 13.2011 21.1361 13.251 21.0363L13.7251 20.5372L14.249 19.9633L14.7981 19.3893L15.2722 18.9152C15.8462 18.3413 15.896 17.6675 15.6465 17.1185C15.5466 16.8939 15.397 16.6943 15.2473 16.5196C15.0726 16.345 14.873 16.1952 14.6484 16.0954C14.4238 15.9956 14.1992 15.9457 13.9746 15.9457C13.5753 15.9457 13.176 16.0954 12.8266 16.4448H12.7768ZM30.4692 14.8727C30.1698 14.9226 29.8704 15.0473 29.6458 15.222C29.2466 15.5215 28.972 15.9706 28.947 16.5446C28.947 16.6444 28.947 16.7442 28.947 16.869C28.947 16.9688 28.997 17.0686 29.022 17.1684L29.2465 17.8172L29.496 18.5409L29.7456 19.2895L29.9453 19.9134C30.1699 20.687 30.7437 21.0363 31.3675 21.0862C31.6171 21.0862 31.8417 21.0862 32.0913 21.0113C32.3159 20.9365 32.5405 20.8367 32.7401 20.687C33.2392 20.2877 33.5136 19.6638 33.289 18.8903L33.0894 18.2664L32.8399 17.4928L32.5654 16.6694L32.3158 15.9706C32.1411 15.4216 31.7419 15.0972 31.3177 14.9475C31.1181 14.8726 30.9433 14.8477 30.7437 14.8477C30.6438 14.8477 30.544 14.8477 30.4442 14.8477L30.4692 14.8727ZM12.9016 5.26531C11.1049 6.78751 9.48287 9.08328 7.91076 11.3042C7.21204 12.2774 6.53826 13.2257 5.8645 14.0991H5.63985C5.16572 14.0991 4.71655 14.2738 4.39215 14.5732C4.06774 14.8727 3.86821 15.3218 3.86821 15.7959C3.86821 16.2701 4.04292 16.7192 4.36732 17.0436C4.69172 17.368 5.11592 17.5677 5.59005 17.5677C6.06417 17.5677 6.51335 17.393 6.83775 17.0686C7.16215 16.7442 7.36169 16.32 7.36169 15.8459C7.36169 15.7211 7.36182 15.5963 7.33686 15.4716C7.33686 15.3967 7.28688 15.2969 7.26193 15.222C7.68615 14.6481 8.13529 13.9493 8.63437 13.2257C9.90703 11.3292 11.529 9.18313 13.1261 7.36149C16.6446 3.36883 20.6373 3.89286 24.4054 7.66092C23.1327 5.31524 20.4627 3.44368 17.568 3.44368C16.0208 3.44368 14.3988 3.9677 12.9016 5.26531ZM32.0413 11.3791C32.4905 12.7017 32.9397 13.8495 33.4887 15.222C34.1375 17.2682 37.3067 16.5695 37.1071 14.4984C37.1071 14.3736 37.082 14.2488 37.0321 14.149C36.4832 12.3772 36.1837 11.6785 35.485 9.98164C35.1606 9.23301 34.5367 8.90863 33.8629 8.90863C32.6651 8.90863 31.4174 9.98165 32.0163 11.404L32.0413 11.3791ZM5.19069 16.2701C5.19069 16.2701 4.99117 16.0205 4.99117 15.8459C4.99117 15.6462 5.04095 15.4965 5.16572 15.3717C5.26553 15.247 5.41537 15.1721 5.59005 15.1721C5.76472 15.1721 5.91443 15.222 6.0392 15.3468C6.13902 15.4466 6.23888 15.5963 6.23888 15.771C6.23888 15.9706 6.18895 16.1204 6.06418 16.2451C5.96436 16.3699 5.81453 16.4448 5.63985 16.4448H5.59005C5.41537 16.4448 5.29049 16.3699 5.16572 16.2701H5.19069ZM16.9941 12.3024C16.5449 12.7266 16.445 12.8264 16.2453 13.051L15.8212 13.5002C15.8212 13.5002 15.6714 13.6499 15.6215 13.7497C14.6233 15.3218 16.8942 17.1185 18.1918 15.7211C18.5911 15.3468 18.9155 14.9725 19.2399 14.6231C19.3147 14.5482 19.3897 14.4484 19.4645 14.3736C20.263 13.2257 19.19 11.8782 18.0421 11.8782C17.6928 11.8782 17.3185 12.0029 16.9941 12.3024ZM43.2457 16.0704C43.096 15.9706 42.9962 15.8459 42.9462 15.6961C42.8963 15.5464 42.9213 15.3717 42.9712 15.222C43.0461 15.0473 43.1959 14.9475 43.3456 14.8976C43.4953 14.8477 43.67 14.8727 43.7948 14.9226C43.9445 15.0224 44.0443 15.1471 44.0942 15.2969C44.1441 15.4466 44.1441 15.5963 44.0692 15.7461C43.9944 15.8958 43.8446 15.9956 43.6948 16.0455C43.6449 16.0455 43.5702 16.0704 43.5203 16.0704C43.4205 16.0704 43.3205 16.0704 43.2457 15.9956V16.0704ZM18.7657 5.41503C17.7925 5.41503 16.8194 5.71452 15.8461 6.38828C14.1992 7.56112 12.677 9.58239 11.1797 11.6037L11.005 11.8532C10.5808 11.8532 10.1815 12.0778 9.90705 12.3772C9.63256 12.6767 9.45792 13.0759 9.48288 13.5251C9.48288 13.9743 9.70737 14.3486 10.0068 14.6231C10.3063 14.8976 10.7056 15.0723 11.1548 15.0473C11.6039 15.0473 11.9783 14.8227 12.2527 14.5233C12.5272 14.2238 12.7019 13.8246 12.6769 13.3754C12.6769 13.2257 12.652 13.076 12.6021 12.9262C12.5772 12.8264 12.5273 12.7515 12.4774 12.6767C12.8517 12.2275 13.2011 11.7784 13.5754 11.3292C14.6235 10.0316 15.6465 8.70898 16.7694 7.83558C20.3379 4.96586 23.4821 8.28476 25.8028 10.5306C24.4553 8.13504 21.7353 5.41503 18.7907 5.41503H18.7657ZM10.6556 13.8994C10.6556 13.8994 10.4561 13.6499 10.4561 13.4752C10.4561 13.2756 10.5059 13.1259 10.6307 13.0011C10.7305 12.9013 10.8803 12.8264 11.055 12.8015C11.2297 12.8015 11.3794 12.8514 11.5042 12.9762C11.6289 13.076 11.7038 13.2257 11.7038 13.4004C11.7038 13.6 11.6539 13.7497 11.5291 13.8745C11.4293 13.9993 11.2795 14.0741 11.1048 14.0741H11.055C10.8803 14.0741 10.7554 14.0242 10.6307 13.8994H10.6556ZM17.1936 2.72002C23.2824 1.59709 25.4785 8.18494 27.2752 12.7515C28.1735 14.9974 31.8167 13.6749 31.0681 11.6785C30.1947 9.3578 28.7474 6.36329 26.776 4.16733C25.1041 2.32073 23.2825 1.34754 21.3361 1.34754C20.0135 1.34754 18.616 1.79672 17.1936 2.72002ZM25.3287 0C24.1309 0 22.8583 0.249548 21.5108 0.74863C25.1042 0.124778 28.3481 3.66826 30.3195 7.53615C31.3426 9.53247 34.986 7.86057 33.5137 5.48993C31.168 1.74682 28.4979 0 25.3536 0H25.3287Z" fill="white"/>
</mask>
<g mask="url(#mask0_342_20)">
<rect width="57.4942" height="55.0986" transform="matrix(1 0 0 -1 -3.59375 52.7783)" fill="white"/>
</g>
<path d="M61.138 30.9684V27.2003H64.4817C65.3551 27.2003 65.979 26.9757 66.4032 26.5016C66.8275 26.0275 67.0521 25.3787 67.0521 24.5053V21.4359C67.0521 20.5625 66.8275 19.9137 66.4032 19.4396C65.979 18.9904 65.3302 18.7409 64.4817 18.7409H61.138V15.0227H64.6564C67.0021 15.0227 68.724 15.5717 69.8719 16.6697C71.0198 17.7677 71.5937 19.3647 71.5937 21.4109V24.4803C71.5937 26.5515 71.0198 28.1486 69.8719 29.2715C68.724 30.3695 66.9771 30.9434 64.6314 30.9434H61.113L61.138 30.9684ZM57.9688 30.9684V15.0476H62.4105V30.9684H57.9688Z" fill="white"/>
<path d="M80.353 31.2929C78.0073 31.2929 76.2856 30.7688 75.1627 29.7707C74.0647 28.7475 73.5156 27.2503 73.5156 25.2789V24.3306C73.5156 22.3842 74.0396 20.887 75.0628 19.8639C76.0859 18.8408 77.6081 18.3417 79.5795 18.3417C80.902 18.3417 82 18.5662 82.8734 18.9905C83.7468 19.4147 84.4205 20.0635 84.8697 20.862C85.3189 21.6855 85.5435 22.6587 85.5435 23.8316V24.2059C85.5435 24.5303 85.5435 24.8796 85.4936 25.229C85.4686 25.5783 85.4187 25.8778 85.3688 26.1773H81.4262C81.4511 25.6782 81.476 25.1791 81.501 24.7549C81.501 24.3057 81.501 23.9064 81.501 23.5571C81.501 23.1329 81.4261 22.7585 81.3013 22.4591C81.1765 22.1596 80.9519 21.9351 80.6774 21.7854C80.4029 21.6356 80.0286 21.5607 79.5795 21.5607C78.9057 21.5607 78.4067 21.7354 78.1072 22.0848C77.8078 22.4341 77.6581 22.9332 77.6581 23.5571V25.1292L77.6831 25.9028C77.6831 26.1523 77.7329 26.4019 77.8078 26.6514C77.9076 26.9009 78.0574 27.1006 78.3069 27.3002C78.5565 27.4749 78.9058 27.6246 79.355 27.7494C79.8041 27.8492 80.4029 27.8991 81.1266 27.8991C81.8503 27.8991 82.5741 27.8492 83.2977 27.7244C83.9965 27.5996 84.695 27.4499 85.3438 27.2253L84.9946 30.4194C84.4207 30.6939 83.7469 30.9186 82.9483 31.0683C82.1498 31.218 81.2765 31.2929 80.3282 31.2929H80.353ZM75.8613 26.1773V23.582H84.5205V26.1773H75.8613Z" fill="white"/>
<path d="M94.2025 31.2929C91.8569 31.2929 90.135 30.7688 89.012 29.7707C87.9141 28.7475 87.365 27.2503 87.365 25.2789V24.3306C87.365 22.3842 87.8892 20.887 88.9123 19.8639C89.9354 18.8408 91.4576 18.3417 93.429 18.3417C94.7515 18.3417 95.8494 18.5662 96.7228 18.9905C97.5962 19.4147 98.2701 20.0635 98.7192 20.862C99.1684 21.6855 99.3929 22.6587 99.3929 23.8316V24.2059C99.3929 24.5303 99.393 24.8796 99.3431 25.229C99.3181 25.5783 99.2681 25.8778 99.2182 26.1773H95.2755C95.3005 25.6782 95.3254 25.1791 95.3503 24.7549C95.3503 24.3057 95.3503 23.9064 95.3503 23.5571C95.3503 23.1329 95.2756 22.7585 95.1508 22.4591C95.026 22.1596 94.8015 21.9351 94.527 21.7854C94.2525 21.6356 93.8781 21.5607 93.429 21.5607C92.7552 21.5607 92.2561 21.7354 91.9566 22.0848C91.6572 22.4341 91.5075 22.9332 91.5075 23.5571V25.1292L91.5324 25.9028C91.5324 26.1523 91.5823 26.4019 91.6572 26.6514C91.757 26.9009 91.9067 27.1006 92.1563 27.3002C92.4058 27.4749 92.7551 27.6246 93.2043 27.7494C93.6535 27.8492 94.2524 27.8991 94.9761 27.8991C95.6998 27.8991 96.4484 27.8492 97.1471 27.7244C97.8458 27.5996 98.5446 27.4499 99.1934 27.2253L98.844 30.4194C98.27 30.6939 97.5962 30.9186 96.7977 31.0683C95.9992 31.218 95.1258 31.2929 94.1776 31.2929H94.2025ZM89.7107 26.1773V23.582H98.3449V26.1773H89.7107Z" fill="white"/>
<path d="M109.649 31.2674C108.901 31.2674 108.302 31.1426 107.803 30.8931C107.303 30.6435 106.929 30.2942 106.655 29.845C106.38 29.3958 106.181 28.8718 106.056 28.2479H105.008L106.006 25.5778C106.006 26.002 106.081 26.3764 106.23 26.6758C106.38 26.9753 106.58 27.2248 106.854 27.3995C107.129 27.5742 107.478 27.649 107.877 27.649C108.476 27.649 108.925 27.4744 109.2 27.125C109.499 26.7756 109.649 26.2516 109.649 25.5279V24.0307C109.649 23.307 109.499 22.783 109.2 22.4336C108.9 22.0843 108.476 21.9096 107.877 21.9096C107.553 21.9096 107.279 21.9595 107.004 22.0843C106.73 22.209 106.505 22.3588 106.33 22.5584C106.156 22.758 106.006 22.9826 105.906 23.2072L104.908 21.4105H106.056C106.181 20.8366 106.38 20.3375 106.655 19.8883C106.929 19.4391 107.328 19.0648 107.827 18.8153C108.327 18.5408 109 18.416 109.774 18.416C111.196 18.416 112.244 18.8902 112.993 19.8384C113.717 20.7867 114.091 22.209 114.091 24.1305V25.4281C114.091 27.3745 113.717 28.8219 112.993 29.7951C112.269 30.7932 111.146 31.2674 109.649 31.2674ZM101.639 35.26V18.6905H106.031L105.881 22.1841L105.981 22.4835V27.0252L105.906 27.7489L106.031 30.943V35.2351H101.639V35.26Z" fill="white"/>
<path d="M122.549 31.2426C120.627 31.2426 119.155 30.6936 118.132 29.6206C117.134 28.5226 116.61 26.9754 116.61 24.9541V21.0613C116.61 19.065 117.109 17.4929 118.132 16.4199C119.155 15.3219 120.627 14.7979 122.549 14.7979C124.47 14.7979 125.943 15.3468 126.966 16.4199C127.989 17.5178 128.488 19.065 128.488 21.0613V24.9541C128.488 26.9754 127.989 28.5226 126.966 29.6206C125.943 30.7186 124.47 31.2426 122.549 31.2426ZM122.549 29.945C123.996 29.945 125.069 29.5208 125.818 28.6474C126.541 27.774 126.916 26.5762 126.916 25.0041V21.0114C126.916 19.4393 126.541 18.2166 125.818 17.3681C125.069 16.5197 123.996 16.0955 122.549 16.0955C121.101 16.0955 120.028 16.5197 119.28 17.3681C118.556 18.2166 118.182 19.4393 118.182 21.0114V25.0041C118.182 26.5762 118.556 27.7989 119.28 28.6474C120.003 29.4958 121.101 29.945 122.549 29.945Z" fill="white"/>
<path d="M132.309 23.4569L131.91 22.309L132.285 22.2591C132.559 21.1361 133.033 20.2628 133.732 19.614C134.431 18.9651 135.329 18.6407 136.427 18.6407C136.726 18.6407 136.976 18.6407 137.201 18.7156C137.425 18.7655 137.625 18.8154 137.799 18.8903L137.899 20.3626C137.7 20.2877 137.45 20.2378 137.201 20.1879C136.926 20.138 136.652 20.1131 136.327 20.1131C135.379 20.1131 134.555 20.3876 133.832 20.9615C133.108 21.5354 132.609 22.3589 132.285 23.4818L132.309 23.4569ZM130.887 30.9681V18.8154H132.359L132.285 22.4587L132.409 22.5835V30.9431H130.912L130.887 30.9681Z" fill="white"/>
<path d="M139.071 30.9682V18.8156H140.593V30.9682H139.071ZM139.82 16.5947C139.495 16.5947 139.246 16.4949 139.071 16.3202C138.896 16.1455 138.822 15.871 138.822 15.5216V15.4218C138.822 15.0974 138.921 14.823 139.071 14.6483C139.246 14.4736 139.495 14.3738 139.82 14.3738C140.144 14.3738 140.418 14.4736 140.568 14.6483C140.743 14.823 140.818 15.0974 140.818 15.4218V15.5216C140.818 15.871 140.743 16.1206 140.568 16.3202C140.394 16.4949 140.144 16.5947 139.82 16.5947Z" fill="white"/>
<path d="M147.927 27.3996C146.33 27.3996 145.108 27.0502 144.259 26.3265C143.411 25.6278 142.987 24.5798 142.987 23.2323V22.808C142.987 21.9845 143.161 21.2609 143.486 20.637C143.81 20.0132 144.334 19.539 145.058 19.1647C145.782 18.8154 146.73 18.6158 147.903 18.5908L153.942 18.441V19.6389L149.949 19.539C150.623 19.6888 151.172 19.8884 151.596 20.1879C152.02 20.4873 152.319 20.8866 152.494 21.3357C152.694 21.8099 152.769 22.3339 152.769 22.9328V23.357C152.769 24.6546 152.369 25.6528 151.546 26.3265C150.722 27.0003 149.525 27.3497 147.927 27.3497V27.3996ZM147.853 34.4117H148.102C148.901 34.4117 149.599 34.3618 150.173 34.237C150.747 34.1122 151.196 33.9126 151.521 33.6381C151.845 33.3636 151.995 32.9893 151.995 32.5401C151.995 31.9911 151.795 31.5669 151.446 31.2924C151.072 31.0179 150.423 30.8183 149.55 30.7434L146.181 30.444H146.705C146.156 30.5189 145.682 30.6187 145.282 30.7933C144.883 30.9431 144.559 31.1676 144.309 31.4421C144.06 31.7166 143.96 32.066 143.96 32.4653C143.96 32.9643 144.135 33.3636 144.434 33.6381C144.758 33.9126 145.208 34.1122 145.781 34.237C146.355 34.3618 147.054 34.4117 147.828 34.4117H147.853ZM147.753 35.6594C146.705 35.6594 145.781 35.5596 145.008 35.3849C144.234 35.2102 143.635 34.9108 143.186 34.4865C142.762 34.0873 142.537 33.5133 142.537 32.8146V32.7647C142.537 32.2407 142.662 31.8164 142.937 31.4671C143.186 31.1177 143.561 30.8682 144.01 30.6686C144.459 30.4689 144.958 30.3441 145.482 30.2942C144.708 30.1445 144.135 29.9699 143.785 29.6954C143.436 29.4209 143.236 29.0466 143.236 28.5724C143.236 28.248 143.311 27.9985 143.461 27.7739C143.61 27.5493 143.835 27.3746 144.134 27.2498C144.434 27.1251 144.833 27.0502 145.332 27.0253V26.8007L147.329 27.3497H146.38C145.732 27.3497 145.257 27.4245 145.008 27.5742C144.758 27.724 144.634 27.9486 144.634 28.248C144.634 28.5724 144.808 28.8219 145.133 28.9717C145.482 29.1463 146.056 29.2462 146.904 29.346L149.824 29.6454C151.097 29.7702 151.995 30.0697 152.569 30.5438C153.143 31.0179 153.417 31.6917 153.417 32.5651V32.615C153.417 33.3387 153.193 33.9375 152.744 34.3867C152.294 34.8359 151.671 35.1603 150.872 35.3849C150.074 35.6095 149.125 35.7093 148.027 35.7093H147.703L147.753 35.6594ZM147.903 26.2766C148.651 26.2766 149.275 26.1519 149.799 25.9273C150.298 25.7027 150.697 25.3534 150.947 24.9042C151.197 24.455 151.346 23.8811 151.346 23.2323V22.808C151.346 22.1592 151.222 21.6102 150.972 21.1611C150.722 20.7119 150.348 20.3625 149.849 20.1379C149.35 19.9134 148.726 19.7886 147.977 19.7886H147.878C147.054 19.7886 146.38 19.9133 145.881 20.1629C145.382 20.4124 145.008 20.7618 144.758 21.2359C144.534 21.6851 144.409 22.2341 144.409 22.833V23.2323C144.409 23.906 144.534 24.455 144.808 24.9042C145.058 25.3534 145.457 25.7027 145.956 25.9273C146.48 26.1519 147.129 26.2766 147.903 26.2766Z" fill="white"/>
<path d="M155.092 30.9682V18.8156H156.614V30.9682H155.092ZM155.84 16.5947C155.516 16.5947 155.266 16.4949 155.092 16.3202C154.917 16.1455 154.842 15.871 154.842 15.5216V15.4218C154.842 15.0974 154.917 14.823 155.092 14.6483C155.266 14.4736 155.516 14.3738 155.84 14.3738C156.165 14.3738 156.439 14.4736 156.589 14.6483C156.764 14.823 156.838 15.0974 156.838 15.4218V15.5216C156.838 15.871 156.764 16.1206 156.589 16.3202C156.414 16.4949 156.165 16.5947 155.84 16.5947Z" fill="white"/>
<path d="M167.593 30.9681V23.3322C167.593 22.6085 167.493 21.9846 167.293 21.4606C167.094 20.9366 166.769 20.5373 166.32 20.2628C165.871 19.9883 165.272 19.8386 164.524 19.8386C163.825 19.8386 163.226 19.9633 162.702 20.2378C162.178 20.5123 161.779 20.8617 161.454 21.3358C161.13 21.81 160.93 22.334 160.805 22.9329L160.506 21.81H160.83C160.93 21.2111 161.155 20.6621 161.504 20.188C161.853 19.7138 162.303 19.3146 162.902 19.0151C163.475 18.7157 164.199 18.5659 165.048 18.5659C166.021 18.5659 166.819 18.7406 167.393 19.1149C167.992 19.4892 168.416 20.0133 168.691 20.687C168.965 21.3857 169.09 22.2092 169.09 23.1824V30.9681H167.593ZM159.383 30.9681V18.8155H160.88L160.805 21.81L160.88 21.8848V30.9432H159.383V30.9681Z" fill="white"/>
</svg>
