<svg width="1001" height="257" viewBox="0 0 1001 257" fill="none" xmlns="http://www.w3.org/2000/svg">
<path d="M217.01 163.77C210.17 177.93 200.47 190.52 188.52 200.73H188.51L224.08 254.09C224.27 254.38 224.38 254.71 224.38 255.06C224.39 256.04 223.6 256.86 222.61 256.86H196.39C195.78 256.85 195.21 256.52 194.88 256L170.54 216.43C169.95 215.48 168.95 214.85 167.83 214.75C165 216.27 162.1 217.67 159.11 218.95C158.34 219.62 157.89 220.58 157.89 221.6V255.01C157.89 256 157.09 256.8 156.1 256.8H134.7C133.71 256.8 132.91 256 132.91 255.01V163.77H104.28V147.12C119.36 146.66 132.86 141.26 136.03 126.1C136.18 125.26 136.91 124.64 137.77 124.63H157.91V188.88C157.92 189.39 158.02 189.89 158.23 190.35C169.62 183.77 179.39 174.74 186.84 163.9H201.33C207.29 163.79 213.17 162.54 218.65 160.2C218.35 160.93 218.04 161.63 217.72 162.3L217.01 163.77Z" fill="#043F2D"/>
<path d="M0.76997 114.04C0.959973 51.34 51.94 0.669997 114.64 0.859999H114.85C177.55 0.859999 228.38 51.69 228.38 114.38C228.38 119.19 228.07 124 227.45 128.78C223.35 141.92 210.61 146.74 196.48 147.24H195.91C200.13 136.8 202.27 125.64 202.22 114.38C202.24 66.04 163.07 26.82 114.72 26.8C66.38 26.78 27.16 65.95 27.14 114.3C27.1199 162.64 66.29 201.86 114.64 201.88C115.445 201.88 116.238 201.842 117.025 201.804C117.802 201.767 118.575 201.73 119.35 201.73C118.77 203.34 118.07 204.9 117.25 206.4C109.13 220.95 85 224.21 75.6199 221.12C30.57 204.8 0.619946 161.95 0.76997 114.04Z" fill="#043F2D"/>
<path d="M455.176 92.05L455.18 92.04L455.17 92.05H455.176Z" fill="#043F2D"/>
<path d="M423.43 183.43L455.176 92.05H479.79L437.05 204.19H409.38L369.81 99.89L325.35 148.22L377.05 204.18H345.7L304.18 155.95V204.18H280.97V53.57H304.18V141.09L344.88 92.04H391.66L423.43 183.43Z" fill="#043F2D"/>
<path fill-rule="evenodd" clip-rule="evenodd" d="M528.81 90.21C547.73 90.21 560.78 99.16 567.7 108.31V92.03H591.14V204.17H567.72V187.48C560.59 197.04 547.16 206 528.45 206C499.29 206 475.89 182.2 475.89 147.6C475.89 113 499.38 90.21 528.81 90.21ZM499.74 147.6C499.74 171.82 516.43 185.86 533.71 185.86C551.22 185.86 567.7 172.05 567.7 148.02C567.7 123.99 550.99 110.35 533.71 110.35C516.43 110.35 499.74 123.38 499.74 147.6Z" fill="#043F2D"/>
<path d="M627.71 104.92C635.23 95.69 647.66 90.2 661.09 90.2H661.1C687.36 90.2 707.1 106.68 707.1 138.03V204.17H684.02V141.5C684.02 120.85 673.05 110.34 655.93 110.34C638.81 110.34 627.63 120.94 627.63 141.5V204.17H604.5V92.1H627.71V104.92Z" fill="#043F2D"/>
<path d="M726.6 64.15H750V92.03H777.33V110.95H750V173.03C750 181.38 753.25 184.85 763.03 184.85H777.26V204.17H758.95C739 204.17 726.6 195.82 726.6 173.03V110.95H713.36V92.03H726.6V64.15Z" fill="#043F2D"/>
<path d="M788.75 62.18C788.83 53.97 795.55 47.38 803.76 47.46H803.91C812.04 47.54 818.56 54.19 818.48 62.32V62.47C818.4 70.68 811.68 77.27 803.47 77.19C795.26 77.11 788.67 70.39 788.75 62.18Z" fill="#043F2D"/>
<path d="M815.15 92.03H791.94V204.17H815.15V92.03Z" fill="#043F2D"/>
<path d="M944 177.45L976.78 92.03H1000.79L932 257H907.99L930.78 202.34L894.2 110.95H861.76V204.17H838.34V111.02H825.12V92.1H838.34V84.15C838.34 58.32 851.46 47.11 880.89 47.11V66.39C866.64 66.39 861.76 71.29 861.76 84.09V91.97H912.47L944 177.45Z" fill="#043F2D"/>
</svg>
